<svg width="210" height="189" viewBox="0 0 210 189" fill="none" xmlns="http://www.w3.org/2000/svg">
<ellipse cx="92.1174" cy="94.5" rx="92.1174" ry="94.5" fill="#FF9D00"/>
<ellipse cx="189.353" cy="20.2075" rx="19.9019" ry="20.2075" fill="#FF9D00"/>
<ellipse cx="92.1181" cy="94.5" rx="80.7448" ry="82.6132" fill="white"/>
<rect x="45.4902" y="45.1698" width="46.6273" height="19.0189" fill="#FF9D00"/>
<rect x="113.724" y="116.491" width="27.294" height="19.0189" fill="#FF9D00"/>
<rect x="98.9405" width="96.6664" height="11.8868" fill="#FF9D00"/>
<rect width="99.8669" height="10.6009" transform="matrix(0.277574 -0.960704 0.957278 0.28917 169.301 120.857)" fill="#FF9D00"/>
<rect width="59.6656" height="19.1167" transform="matrix(0.288248 -0.957556 0.953875 0.300206 173.375 75.9879)" fill="#FF9D00"/>
<rect width="35.5454" height="17.7617" transform="matrix(0.288248 -0.957556 0.953875 0.300206 169.08 58.3147)" fill="#FF9D00"/>
<rect width="34.6728" height="20.8038" transform="matrix(0.288248 -0.957556 0.953875 0.300206 155.778 42.7106)" fill="#FF9D00"/>
<rect width="16.1918" height="35.0133" transform="matrix(0.288248 -0.957556 0.953875 0.300206 130.203 16.6933)" fill="#FF9D00"/>
<rect width="16.1918" height="35.0133" transform="matrix(0.288248 -0.957556 0.953875 0.300206 147.64 28.5801)" fill="#FF9D00"/>
<rect width="70.2115" height="22.8185" transform="matrix(0.434625 -0.900612 0.892797 0.450459 54.0346 127.422)" fill="#FF9D00"/>
<path d="M61.4112 111.736L74.2147 137.59H48.6076L61.4112 111.736Z" fill="#FF9D00"/>
<path d="M80.8231 67.7141L92.1848 45.5092L105.221 70.0981L80.8231 67.7141Z" fill="#FF9D00"/>
<rect width="83.7276" height="22.2587" transform="matrix(-0.4613 -0.887244 0.878586 -0.477585 113.852 134.957)" fill="#FF9D00"/>
<path d="M172.71 38.566V34.5774L182.029 25.9481C182.822 25.1811 183.487 24.4908 184.023 23.8771C184.569 23.2635 184.982 22.6626 185.264 22.0746C185.545 21.478 185.685 20.8345 185.685 20.1442C185.685 19.3771 185.511 18.7166 185.161 18.1626C184.812 17.6001 184.335 17.1697 183.729 16.8714C183.124 16.5646 182.438 16.4112 181.671 16.4112C180.87 16.4112 180.171 16.5731 179.575 16.897C178.978 17.2209 178.518 17.6854 178.194 18.2905C177.87 18.8956 177.708 19.6158 177.708 20.451H172.454C172.454 18.7379 172.842 17.2507 173.617 15.9893C174.393 14.728 175.479 13.7521 176.877 13.0618C178.275 12.3714 179.886 12.0263 181.71 12.0263C183.585 12.0263 185.217 12.3587 186.606 13.0234C188.004 13.6797 189.09 14.5916 189.866 15.7592C190.641 16.9268 191.029 18.2649 191.029 19.7734C191.029 20.7621 190.833 21.7379 190.441 22.701C190.058 23.6641 189.371 24.7337 188.383 25.9098C187.394 27.0774 186.001 28.4794 184.202 30.1158L180.38 33.8615V34.0405H191.374V38.566H172.71Z" fill="black"/>
</svg>
